<svg xmlns="http://www.w3.org/2000/svg" width="20" height="22" viewBox="0 0 20 22">
  <path fill="#BFBFBF" d="M1259.74503,42 C1253.8195,42 1249,37.0661333 1249,31 C1249,24.9338667 1253.8195,20 1259.74503,20 C1260.08027,20 1260.41408,20.0161333 1260.74933,20.066 C1261.04159,20.11 1261.27941,20.3329333 1261.34532,20.6277333 C1261.41122,20.9225333 1261.29374,21.2290667 1261.04875,21.3992 C1258.88686,22.8981333 1257.59602,25.39 1257.59602,28.0666667 C1257.59602,32.5136 1261.13185,36.1333333 1265.47571,36.1333333 C1266.38402,36.1333333 1267.24649,35.9837333 1268.04162,35.6918667 C1268.32385,35.5877333 1268.64764,35.6786667 1268.83961,35.9192 C1269.03159,36.1612 1269.05308,36.5 1268.89406,36.7654667 C1266.927,40.0434667 1263.50578,42 1259.74503,42 Z M1258.70204,21.5268 C1254.05733,22.0577333 1250.43267,26.1042667 1250.43267,31 C1250.43267,36.2565333 1254.61034,40.5333333 1259.74503,40.5333333 C1262.36108,40.5333333 1264.78659,39.4421333 1266.52299,37.5428 C1266.18058,37.5794667 1265.83101,37.6 1265.47571,37.6 C1260.34102,37.6 1256.16335,33.3232 1256.16335,28.0666667 C1256.16335,25.6041333 1257.08885,23.2736 1258.70204,21.5268 Z" transform="translate(-1249 -20)"/>
</svg>
