<svg xmlns="http://www.w3.org/2000/svg" width="25" height="25" viewBox="0 0 25 25">
  <path fill="#999" d="M1223.5,39.5783548 C1219.59073,39.5783548 1216.42165,36.4092674 1216.42165,32.5 C1216.42165,28.5907326 1219.59073,25.4216452 1223.5,25.4216452 C1227.40927,25.4216452 1230.57835,28.5907326 1230.57835,32.5 C1230.57835,36.4092674 1227.40927,39.5783548 1223.5,39.5783548 Z M1223.5,38.0053871 C1226.54054,38.0053871 1229.00539,35.5405413 1229.00539,32.5 C1229.00539,29.4594587 1226.54054,26.9946129 1223.5,26.9946129 C1220.45946,26.9946129 1217.99461,29.4594587 1217.99461,32.5 C1217.99461,35.5405413 1220.45946,38.0053871 1223.5,38.0053871 Z M1224.23529,20.7352941 C1224.23529,20.3292024 1223.90609,20 1223.5,20 C1223.09391,20 1222.76471,20.3292024 1222.76471,20.7352941 L1222.76471,22.2058824 C1222.76471,22.6119741 1223.09391,22.9411765 1223.5,22.9411765 C1223.90609,22.9411765 1224.23529,22.6119741 1224.23529,22.2058824 L1224.23529,20.7352941 Z M1232.33884,24.7010281 C1232.62599,24.4138779 1232.62599,23.9483154 1232.33884,23.6611653 C1232.05168,23.374015 1231.58612,23.374015 1231.29897,23.6611653 L1230.25911,24.7010281 C1229.97196,24.9881784 1229.97196,25.4537409 1230.25911,25.740891 C1230.54626,26.0280413 1231.01182,26.0280413 1231.29897,25.740891 L1232.33884,24.7010281 Z M1235.26471,33.2352941 C1235.6708,33.2352941 1236,32.9060918 1236,32.5 C1236,32.0939082 1235.6708,31.7647059 1235.26471,31.7647059 L1233.79412,31.7647059 C1233.38803,31.7647059 1233.05882,32.0939082 1233.05882,32.5 C1233.05882,32.9060918 1233.38803,33.2352941 1233.79412,33.2352941 L1235.26471,33.2352941 Z M1231.29897,41.3388347 C1231.58612,41.625985 1232.05168,41.625985 1232.33884,41.3388347 C1232.62599,41.0516846 1232.62599,40.5861221 1232.33884,40.2989719 L1231.29897,39.259109 C1231.01182,38.9719587 1230.54626,38.9719587 1230.25911,39.259109 C1229.97196,39.5462591 1229.97196,40.0118216 1230.25911,40.2989719 L1231.29897,41.3388347 Z M1222.76471,44.2647059 C1222.76471,44.6707976 1223.09391,45 1223.5,45 C1223.90609,45 1224.23529,44.6707976 1224.23529,44.2647059 L1224.23529,42.7941176 C1224.23529,42.3880259 1223.90609,42.0588235 1223.5,42.0588235 C1223.09391,42.0588235 1222.76471,42.3880259 1222.76471,42.7941176 L1222.76471,44.2647059 Z M1214.66116,40.2989719 C1214.37401,40.5861221 1214.37401,41.0516846 1214.66116,41.3388347 C1214.94832,41.625985 1215.41388,41.625985 1215.70103,41.3388347 L1216.74089,40.2989719 C1217.02804,40.0118216 1217.02804,39.5462591 1216.74089,39.259109 C1216.45374,38.9719587 1215.98818,38.9719587 1215.70103,39.259109 L1214.66116,40.2989719 Z M1211.73529,31.7647059 C1211.3292,31.7647059 1211,32.0939082 1211,32.5 C1211,32.9060918 1211.3292,33.2352941 1211.73529,33.2352941 L1213.20588,33.2352941 C1213.61197,33.2352941 1213.94118,32.9060918 1213.94118,32.5 C1213.94118,32.0939082 1213.61197,31.7647059 1213.20588,31.7647059 L1211.73529,31.7647059 Z M1215.70103,23.6611653 C1215.41388,23.374015 1214.94832,23.374015 1214.66116,23.6611653 C1214.37401,23.9483154 1214.37401,24.4138779 1214.66116,24.7010281 L1215.70103,25.740891 C1215.98818,26.0280413 1216.45374,26.0280413 1216.74089,25.740891 C1217.02804,25.4537409 1217.02804,24.9881784 1216.74089,24.7010281 L1215.70103,23.6611653 Z" transform="translate(-1211 -20)"/>
</svg>
