<svg xmlns="http://www.w3.org/2000/svg" width="82" height="82" viewBox="0 0 82 82">
  <g fill="none" fill-rule="evenodd">
    <circle cx="41" cy="41" r="41" fill="#FFF"/>
    <path stroke="#000" stroke-linecap="round" stroke-width="4.42" d="M20 50L35.2909836 32M32.8545082 50L48.1454918 32M45.7090164 50L61 32"/>
    <path fill="#000" fill-rule="nonzero" d="M41,7.41071429 C49.9741071,7.41071429 58.4053571,10.9053571 64.75,17.25 C71.0946429,23.5946429 74.5892857,32.0258929 74.5892857,41 C74.5892857,49.9741071 71.0946429,58.4053571 64.75,64.75 C58.4053571,71.0946429 49.9741071,74.5892857 41,74.5892857 C32.0258929,74.5892857 23.5946429,71.0946429 17.25,64.75 C10.9053571,58.4053571 7.41071429,49.9741071 7.41071429,41 C7.41071429,32.0258929 10.9053571,23.5946429 17.25,17.25 C23.5946429,10.9053571 32.0258929,7.41071429 41,7.41071429 Z M41,3 C20.0151786,3 3,20.0151786 3,41 C3,61.9848214 20.0151786,79 41,79 C61.9848214,79 79,61.9848214 79,41 C79,20.0151786 61.9848214,3 41,3 Z"/>
  </g>
</svg>
